HIERARCHY
ROOT joint_Root
{
	OFFSET 0.0 0.0 0.0
	CHANNELS 6 Xposition Yposition Zposition Zrotation Xrotation Yrotation 
	JOINT Hips
	{
		OFFSET -17.1583 93.1646 452.98
		CHANNELS 6 Xposition Yposition Zposition Zrotation Xrotation Yrotation 
		JOINT Spine
		{
			OFFSET 15.7357 0.0 0.0
			CHANNELS 6 Xposition Yposition Zposition Zrotation Xrotation Yrotation 
			JOINT Chest
			{
				OFFSET 8.98455 -0.406207 0.0
				CHANNELS 6 Xposition Yposition Zposition Zrotation Xrotation Yrotation 
				JOINT Neck
				{
					OFFSET 16.3773 0.0 0.0
					CHANNELS 6 Xposition Yposition Zposition Zrotation Xrotation Yrotation 
					JOINT Head
					{
						OFFSET 6.45672 0.0 0.0
						CHANNELS 6 Xposition Yposition Zposition Zrotation Xrotation Yrotation 
						End Site
						{
							OFFSET 0.0 0.0 0.0
						}
					}
				}
				JOINT Shoulder_L
				{
					OFFSET 12.9942 -0.242716 4.98039
					CHANNELS 6 Xposition Yposition Zposition Zrotation Xrotation Yrotation 
					JOINT UpperArm_L
					{
						OFFSET 5.34809 0.0 0.0
						CHANNELS 6 Xposition Yposition Zposition Zrotation Xrotation Yrotation 
						JOINT LowerArm_L
						{
							OFFSET 24.3286 1.87007e-05 0.0
							CHANNELS 6 Xposition Yposition Zposition Zrotation Xrotation Yrotation 
							JOINT Hand_L
							{
								OFFSET 22.2916 0.0 0.0
								CHANNELS 6 Xposition Yposition Zposition Zrotation Xrotation Yrotation 
								End Site
								{
									OFFSET 0.0 0.0 0.0
								}
							}
						}
					}
				}
				JOINT Shoulder_R
				{
					OFFSET 12.9945 -0.242716 -4.98039
					CHANNELS 6 Xposition Yposition Zposition Zrotation Xrotation Yrotation 
					JOINT UpperArm_R
					{
						OFFSET -5.34813 0.0 0.0
						CHANNELS 6 Xposition Yposition Zposition Zrotation Xrotation Yrotation 
						JOINT LowerArm_R
						{
							OFFSET -24.3289 0.000322201 0.0
							CHANNELS 6 Xposition Yposition Zposition Zrotation Xrotation Yrotation 
							JOINT Hand_R
							{
								OFFSET -22.2915 -0.000108084 0.0
								CHANNELS 6 Xposition Yposition Zposition Zrotation Xrotation Yrotation 
								End Site
								{
									OFFSET 0.0 0.0 0.0
								}
							}
						}
					}
				}
			}
		}
		JOINT UpperLeg_L
		{
			OFFSET -2.19248 -6.46944 0.0
			CHANNELS 6 Xposition Yposition Zposition Zrotation Xrotation Yrotation 
			JOINT LowerLeg_L
			{
				OFFSET 39.0811 0.0 -1.23785e-05
				CHANNELS 6 Xposition Yposition Zposition Zrotation Xrotation Yrotation 
				JOINT Foot_L
				{
					OFFSET 40.9854 0.0 -1.26872e-05
					CHANNELS 6 Xposition Yposition Zposition Zrotation Xrotation Yrotation 
					JOINT Toes_L
					{
						OFFSET 11.7543 0.0 0.0
						CHANNELS 6 Xposition Yposition Zposition Zrotation Xrotation Yrotation 
						End Site
						{
							OFFSET 0.0 0.0 0.0
						}
					}
				}
			}
		}
		JOINT UpperLeg_R
		{
			OFFSET -2.19251 6.46944 0.0
			CHANNELS 6 Xposition Yposition Zposition Zrotation Xrotation Yrotation 
			JOINT LowerLeg_R
			{
				OFFSET -39.0811 -0.00228153 -0.0401928
				CHANNELS 6 Xposition Yposition Zposition Zrotation Xrotation Yrotation 
				JOINT Foot_R
				{
					OFFSET -40.9854 0.0 0.0
					CHANNELS 6 Xposition Yposition Zposition Zrotation Xrotation Yrotation 
					JOINT Toes_R
					{
						OFFSET -11.7543 0.0 0.0
						CHANNELS 6 Xposition Yposition Zposition Zrotation Xrotation Yrotation 
						End Site
						{
							OFFSET 0.0 0.0 0.0
						}
					}
				}
			}
		}
	}
}
MOTION
Frames:	4
Frame Time:	0.0333333
0.000000 0.000000 0.000000 0.000000 0.000000 -0.000000 0.627097 92.676300 0.995222 88.002400 -1.913880 4.940810 15.735700 0.000005 -0.000001 110.965000 85.958400 -111.644000 8.984550 -0.406207 -0.000000 -0.199452 2.938680 -1.353750 16.377300 -0.000001 -0.000001 1.330770 2.257790 -4.794260 6.456720 -0.000001 -0.000000 4.046140 -0.234481 3.567730 12.994200 -0.242716 4.980390 -92.129200 6.554200 -71.958500 5.348090 -0.000007 -0.000001 -73.286700 23.854200 -4.439740 24.328600 0.000019 0.000005 7.842400 24.709700 -18.236800 22.291600 -0.000001 0.000005 -0.777073 4.976450 7.816130 12.994500 -0.242716 -4.980390 88.337000 6.046940 -74.591700 -5.348130 -0.000001 -0.000004 -72.764200 31.795400 -4.079980 -24.328900 0.000322 -0.000009 0.507073 1.775000 -15.978100 -22.291500 -0.000108 -0.000004 1.937790 5.253860 1.330720 -2.192480 -6.469440 -0.000000 -173.724000 -4.474520 2.500350 39.081100 -0.000007 -0.000012 0.015700 -0.046862 18.523100 40.985400 -0.000006 -0.000013 -0.001812 11.472600 -70.411000 11.754300 -0.000000 0.000003 -0.001157 0.185246 -9.062130 -2.192510 6.469440 -0.000001 175.884000 2.888140 -175.444000 -39.081100 -0.002282 -0.040193 0.018259 -0.060663 13.823800 -40.985400 0.000008 0.000006 -5.905040 8.070600 -68.824200 -11.754300 -0.000006 -0.000006 -0.010601 0.275746 -5.369310
0.000000 0.000000 0.000000 0.000000 0.000000 -0.000000 0.602129 92.675600 0.997192 88.018500 -1.950560 4.858990 15.735700 0.000005 -0.000001 111.295000 85.948000 -111.901000 8.984550 -0.406207 -0.000000 -0.198553 2.984580 -1.204970 16.377300 -0.000001 -0.000001 1.291830 2.229630 -4.547010 6.456720 -0.000001 -0.000000 4.043160 -0.120266 3.300600 12.994200 -0.242716 4.980390 -92.173000 6.713540 -72.018200 5.348090 -0.000007 -0.000001 -72.821900 23.735100 -4.728240 24.328600 0.000019 0.000005 8.009440 24.694700 -18.613300 22.291600 -0.000001 0.000005 -1.173980 4.992710 7.473450 12.994500 -0.242716 -4.980390 88.404600 5.849630 -74.715400 -5.348130 -0.000001 -0.000004 -72.732900 31.472200 -4.086190 -24.328900 0.000322 -0.000009 0.537484 1.913440 -15.721900 -22.291500 -0.000108 -0.000004 2.047840 5.256650 1.256330 -2.192480 -6.469440 -0.000000 -173.697000 -4.619110 2.435330 39.081100 -0.000007 -0.000012 0.013967 -0.041765 18.490800 40.985400 -0.000006 -0.000013 -0.006121 11.598400 -70.356500 11.754300 -0.000000 0.000003 -0.000994 0.182949 -9.155500 -2.192510 6.469440 -0.000001 175.919000 2.805470 -175.557000 -39.081100 -0.002282 -0.040193 0.020297 -0.068649 13.881100 -40.985400 0.000008 0.000006 -5.789250 7.995200 -68.897900 -11.754300 -0.000006 -0.000006 -0.010714 0.276566 -5.335740
0.000000 0.000000 0.000000 0.000000 0.000000 -0.000000 0.578358 92.683200 1.002940 88.041200 -1.884640 4.815320 15.735700 0.000005 -0.000001 111.587000 85.925900 -112.095000 8.984550 -0.406207 -0.000000 -0.174962 3.032280 -1.012020 16.377300 -0.000001 -0.000001 1.218740 2.138000 -4.173160 6.456720 -0.000001 -0.000000 4.069800 -0.035892 3.148680 12.994200 -0.242716 4.980390 -92.224100 6.899260 -72.083300 5.348090 -0.000007 -0.000001 -72.443100 22.274500 -5.232490 24.328600 0.000019 0.000005 7.931210 24.714400 -18.428800 22.291600 -0.000001 0.000005 -2.035910 5.014350 7.011760 12.994500 -0.242716 -4.980390 88.451400 5.697460 -74.766500 -5.348130 -0.000001 -0.000004 -72.602900 31.138400 -4.026920 -24.328900 0.000322 -0.000009 0.481279 1.730870 -15.573100 -22.291500 -0.000108 -0.000004 2.126970 5.252410 1.369060 -2.192480 -6.469440 -0.000000 -173.672000 -4.707880 2.429930 39.081100 -0.000007 -0.000012 0.012564 -0.037757 18.406500 40.985400 -0.000006 -0.000013 -0.008495 11.781200 -70.368700 11.754300 -0.000000 0.000003 -0.001200 0.185834 -9.038230 -2.192510 6.469440 -0.000001 175.907000 2.833770 -175.577000 -39.081100 -0.002282 -0.040193 0.019761 -0.066618 13.852800 -40.985400 0.000008 0.000006 -5.861250 7.964020 -68.878500 -11.754300 -0.000006 -0.000006 -0.010654 0.276131 -5.353570
0.000000 0.000000 0.000000 0.000000 0.000000 -0.000000 0.564974 92.695300 0.983102 88.112100 -1.627540 4.695330 15.735700 0.000005 -0.000001 111.476000 85.949100 -111.870000 8.984550 -0.406207 -0.000000 -0.215732 2.992840 -0.781243 16.377300 -0.000001 -0.000001 1.120440 2.014530 -3.764000 6.456720 -0.000001 -0.000000 4.187350 -0.005416 3.197840 12.994200 -0.242716 4.980390 -92.277800 7.062850 -72.074000 5.348090 -0.000007 -0.000001 -72.156100 19.489000 -6.063800 24.328600 0.000019 0.000005 7.328290 24.552800 -17.196600 22.291600 -0.000001 0.000005 -2.896900 5.029480 6.686130 12.994500 -0.242716 -4.980390 88.497500 5.559200 -74.849600 -5.348130 -0.000001 -0.000004 -72.455700 30.461700 -3.932220 -24.328900 0.000322 -0.000009 0.464560 1.707740 -15.253400 -22.291500 -0.000108 -0.000004 2.074320 5.252440 1.368170 -2.192480 -6.469440 -0.000000 -173.748000 -4.610760 2.314290 39.081100 -0.000007 -0.000012 0.012232 -0.037022 18.283900 40.985400 -0.000006 -0.000013 -0.005861 11.920200 -70.298800 11.754300 -0.000000 0.000003 -0.001130 0.184869 -9.077440 -2.192510 6.469440 -0.000001 175.818000 3.094320 -175.668000 -39.081100 -0.002282 -0.040193 0.019644 -0.066259 13.830000 -40.985400 0.000008 0.000006 -5.941050 7.969090 -68.847900 -11.754300 -0.000006 -0.000006 -0.010575 0.275550 -5.377340
